<svg xmlns="http://www.w3.org/2000/svg" width="323.818" height="42.686" viewBox="0 0 323.818 42.686"><defs><style>.a{fill:#585858;font-size:40px;font-family:SDGothicNeoa-hExBd, Sandoll GothicNeo1;letter-spacing:-0.02em;}.b{fill:#b1afaf;}</style></defs><g transform="translate(-348.287 -193.892)"><g transform="translate(-389.59 -34.643)"><g transform="translate(823.695 229.534)"><text class="a" transform="translate(0 32)"><tspan x="0" y="0">내 스토어 관리</tspan></text></g><path class="b" d="M50.188,9.888,44.777,1.251A2.669,2.669,0,0,0,42.518,0H8.837A2.669,2.669,0,0,0,6.577,1.251L1.166,9.888c-2.793,4.46-.317,10.663,4.9,11.372a8.664,8.664,0,0,0,1.142.075,8.232,8.232,0,0,0,6.153-2.76,8.239,8.239,0,0,0,12.305,0,8.239,8.239,0,0,0,12.305,0,8.259,8.259,0,0,0,6.153,2.76,8.571,8.571,0,0,0,1.142-.075C50.5,20.559,52.989,14.356,50.188,9.888ZM44.144,24.011a10.578,10.578,0,0,1-2.459-.317v8.32H9.67v-8.32a11.044,11.044,0,0,1-2.459.317,11.249,11.249,0,0,1-1.5-.1,10.484,10.484,0,0,1-1.367-.3V40.018a2.665,2.665,0,0,0,2.668,2.668h37.35a2.665,2.665,0,0,0,2.668-2.668V23.61a8.512,8.512,0,0,1-1.367.3A11.594,11.594,0,0,1,44.144,24.011Z" transform="translate(737.873 228.534)"/></g></g></svg>