<svg xmlns="http://www.w3.org/2000/svg" xmlns:xlink="http://www.w3.org/1999/xlink" width="272.038" height="94" viewBox="0 0 272.038 94"><defs><style>.a{fill:#fff;}.b,.c,.d{fill:#b1afaf;}.b{font-size:24px;font-family:SDGothicNeoa-gBd, Sandoll GothicNeo1;letter-spacing:-0.02em;}.c{opacity:0;}.e{filter:url(#a);}</style><filter id="a" x="0" y="0" width="272.038" height="94" filterUnits="userSpaceOnUse"><feOffset dy="3" input="SourceAlpha"/><feGaussianBlur stdDeviation="3" result="b"/><feFlood flood-opacity="0.161"/><feComposite operator="in" in2="b"/><feComposite in="SourceGraphic"/></filter></defs><g transform="translate(-352 -1075.061)"><g class="e" transform="matrix(1, 0, 0, 1, 352, 1075.06)"><rect class="a" width="254.038" height="76" rx="38" transform="translate(9 6)"/></g><g transform="translate(3)"><text class="b" transform="translate(432.964 1126.061)"><tspan x="0" y="0">선택 상품 삭제</tspan></text><g transform="translate(395.24 1104)"><rect class="c" width="30" height="30" transform="translate(-0.24)"/><path class="d" d="M25.029,6.848h-6.06V4.824A2.933,2.933,0,0,0,15.938,2H12.3a2.933,2.933,0,0,0-3.03,2.824V6.848H3.212a1.212,1.212,0,0,0,0,2.424H4.424V22.6A3.636,3.636,0,0,0,8.06,26.241h12.12A3.636,3.636,0,0,0,23.817,22.6V9.273h1.212a1.212,1.212,0,0,0,0-2.424ZM11.7,18.969a1.212,1.212,0,0,1-2.424,0V14.121a1.212,1.212,0,1,1,2.424,0Zm0-14.144c0-.194.255-.4.606-.4h3.636c.351,0,.606.206.606.4V6.848H11.7Zm7.272,14.144a1.212,1.212,0,0,1-2.424,0V14.121a1.212,1.212,0,1,1,2.424,0Z" transform="translate(0.88 0.879)"/></g></g></g></svg>