<svg xmlns="http://www.w3.org/2000/svg" width="52" height="52" viewBox="0 0 52 52"><defs><style>.a{fill:none;}.b{fill:#d0cccc;}</style></defs><path class="a" d="M0,0H52V52H0Z"/><path class="a" d="M0,0H52V52H0Z"/><path class="b" d="M23.667,2A21.667,21.667,0,1,0,45.333,23.667,21.675,21.675,0,0,0,23.667,2Zm0,6.5a6.5,6.5,0,1,1-6.5,6.5A6.491,6.491,0,0,1,23.667,8.5Zm0,30.767a15.6,15.6,0,0,1-13-6.977c.065-4.312,8.667-6.673,13-6.673,4.312,0,12.935,2.362,13,6.673A15.6,15.6,0,0,1,23.667,39.267Z" transform="translate(2.333 2.333)"/></svg>