<svg xmlns="http://www.w3.org/2000/svg" width="96" height="96" viewBox="0 0 96 96"><defs><style>.a{fill:#629dd9;font-size:12px;font-family:SDGothicNeoa-dRg, Sandoll GothicNeo1;letter-spacing:-0.02em;}.b{font-size:21px;font-family:SDGothicNeoa-gBd, Sandoll GothicNeo1;}.c{fill:none;stroke-linecap:round;}.d,.e{stroke:none;}.e{fill:#629dd9;}</style></defs><g transform="translate(-602 -1275)"><g transform="translate(624 1305)"><text class="a" transform="translate(26 10)"><tspan x="-16.32" y="0">예약률</tspan><tspan class="b"><tspan x="-26.019" y="24">128%</tspan></tspan></text></g><g class="c" transform="translate(602 1275)"><path class="d" d="M48,0A48,48,0,1,1,17.545,10.9,48,48,0,0,1,48,0Z"/><path class="e" d="M 48 8 C 38.67351913452148 8 29.67474365234375 11.21299743652344 22.66047668457031 17.04783630371094 C 13.34353637695312 24.79598236083984 8 36.07762145996094 8 48 C 8 70.05607604980469 25.94391632080078 88 48 88 C 70.05607604980469 88 88 70.05607604980469 88 48 C 88 25.94391632080078 70.05607604980469 8 48 8 M 48 0 C 74.50965881347656 0 96 21.49034118652344 96 48 C 96 74.50965881347656 74.50965881347656 96 48 96 C 21.49034118652344 96 0 74.50965881347656 0 48 C 0 33.15457916259766 6.7393798828125 19.88323974609375 17.54524230957031 10.89688110351562 C 25.64324188232422 4.1605224609375 36.33573913574219 0 48 0 Z"/></g></g></svg>