<svg xmlns="http://www.w3.org/2000/svg" width="120" height="24" viewBox="0 0 120 24"><defs><style>.a{fill:none;}.b{fill:#629dd9;}</style></defs><g transform="translate(-587 -1275)"><g transform="translate(587 1275)"><path class="a" d="M0,0H24V24H0Z"/><path class="a" d="M0,0H24V24H0Z"/><path class="b" d="M12,17.27,18.18,21l-1.64-7.03L22,9.24l-7.19-.61L12,2,9.19,8.63,2,9.24l5.46,4.73L5.82,21Z"/></g><g transform="translate(611 1275)"><path class="a" d="M0,0H24V24H0Z"/><path class="a" d="M0,0H24V24H0Z"/><path class="b" d="M12,17.27,18.18,21l-1.64-7.03L22,9.24l-7.19-.61L12,2,9.19,8.63,2,9.24l5.46,4.73L5.82,21Z"/></g><g transform="translate(635 1275)"><path class="a" d="M0,0H24V24H0Z"/><path class="a" d="M0,0H24V24H0Z"/><path class="b" d="M12,17.27,18.18,21l-1.64-7.03L22,9.24l-7.19-.61L12,2,9.19,8.63,2,9.24l5.46,4.73L5.82,21Z"/></g><g transform="translate(659 1275)"><path class="a" d="M0,0H24V24H0Z"/><path class="a" d="M0,0H24V24H0Z"/><path class="b" d="M12,17.27,18.18,21l-1.64-7.03L22,9.24l-7.19-.61L12,2,9.19,8.63,2,9.24l5.46,4.73L5.82,21Z"/></g><g transform="translate(683 1275)"><path class="a" d="M0,0H24V24H0Z"/><path class="a" d="M0,0H24V24H0Z"/><path class="b" d="M12,17.27V2L9.19,8.63,2,9.24l5.46,4.73L5.82,21Z"/></g></g></svg>