<svg xmlns="http://www.w3.org/2000/svg" width="47.476" height="47.476" viewBox="0 0 47.476 47.476"><defs><style>.a{fill:none;}.b{fill:#d0cccc;}</style></defs><path class="a" d="M0,0H47.476V47.476H0Z"/><path class="b" d="M12.869,33.65a3.956,3.956,0,1,0,3.956,3.956A3.951,3.951,0,0,0,12.869,33.65ZM1,2V5.956H4.956L12.078,20.97,9.407,25.817a3.825,3.825,0,0,0-.495,1.9,3.968,3.968,0,0,0,3.956,3.956H36.607V27.716H13.7a.49.49,0,0,1-.495-.495l.059-.237,1.78-3.224H29.782a3.938,3.938,0,0,0,3.462-2.037L40.326,8.884a1.933,1.933,0,0,0,.237-.95,1.984,1.984,0,0,0-1.978-1.978H9.328L7.469,2H1ZM32.65,33.65a3.956,3.956,0,1,0,3.956,3.956A3.951,3.951,0,0,0,32.65,33.65Z" transform="translate(0.979 1.957)"/></svg>