<svg xmlns="http://www.w3.org/2000/svg" xmlns:xlink="http://www.w3.org/1999/xlink" width="121" height="58" viewBox="0 0 121 58"><defs><style>.a{fill:none;}.b,.c{stroke:none;}.c{fill:#629dd9;}.d{filter:url(#a);}</style><filter id="a" x="0" y="0" width="121" height="58" filterUnits="userSpaceOnUse"><feOffset dy="3" input="SourceAlpha"/><feGaussianBlur stdDeviation="3" result="b"/><feFlood flood-opacity="0.161"/><feComposite operator="in" in2="b"/><feComposite in="SourceGraphic"/></filter></defs><g class="d" transform="matrix(1, 0, 0, 1, 0, 0)"><g class="a" transform="translate(9 6)"><path class="b" d="M12,0H91c6.627,0,12,6.321,12,14.118V25.882C103,33.679,97.627,40,91,40H12C5.373,40,0,33.679,0,25.882V14.118C0,6.321,5.373,0,12,0Z"/><path class="c" d="M 12 2 C 6.485984802246094 2 2 7.435955047607422 2 14.11764526367188 L 2 25.88235473632812 C 2 32.56404495239258 6.485984802246094 38 12 38 L 91 38 C 96.51401519775391 38 101 32.56404495239258 101 25.88235473632812 L 101 14.11764526367188 C 101 7.435955047607422 96.51401519775391 2 91 2 L 12 2 M 12 0 L 91 0 C 97.62741851806641 0 103 6.320693969726562 103 14.11764526367188 L 103 25.88235473632812 C 103 33.6793212890625 97.62741851806641 40 91 40 L 12 40 C 5.372581481933594 40 0 33.6793212890625 0 25.88235473632812 L 0 14.11764526367188 C 0 6.320693969726562 5.372581481933594 0 12 0 Z"/></g></g></svg>