<svg xmlns="http://www.w3.org/2000/svg" width="240.774" height="68.619" viewBox="0 0 240.774 68.619"><defs><style>.a{fill:none;}.b{fill:#b1afaf;}.c{fill:#585858;font-size:40px;font-family:SDGothicNeoa-hExBd, Sandoll GothicNeo1;letter-spacing:-0.02em;}</style></defs><g transform="translate(-729.59 -216.033)"><g transform="translate(729.59 216.033)"><path class="a" d="M0,0H68.619V68.619H0Z"/><path class="b" d="M18.155,47.746a5.718,5.718,0,1,0,5.718,5.718A5.711,5.711,0,0,0,18.155,47.746ZM1,2V7.718H6.718l10.293,21.7-3.86,7a5.528,5.528,0,0,0-.715,2.745,5.735,5.735,0,0,0,5.718,5.718h34.31V39.169H19.356a.708.708,0,0,1-.715-.715l.086-.343,2.573-4.66H42.6a5.691,5.691,0,0,0,5-2.945L57.84,11.95a2.793,2.793,0,0,0,.343-1.372,2.868,2.868,0,0,0-2.859-2.859H13.037L10.349,2H1ZM46.746,47.746a5.718,5.718,0,1,0,5.718,5.718A5.711,5.711,0,0,0,46.746,47.746Z" transform="translate(1.859 3.718)"/></g><g transform="translate(823.695 229.534)"><text class="c" transform="translate(0 32)"><tspan x="0" y="0">장바구니</tspan></text></g></g></svg>