<svg xmlns="http://www.w3.org/2000/svg" xmlns:xlink="http://www.w3.org/1999/xlink" width="52.751" height="48.783" viewBox="0 0 52.751 48.783"><defs><style>.a{fill:none;stroke:#629dd9;stroke-width:3px;}.b{filter:url(#a);}</style><filter id="a" x="0" y="0" width="52.751" height="48.783" filterUnits="userSpaceOnUse"><feOffset dy="3" input="SourceAlpha"/><feGaussianBlur stdDeviation="3" result="b"/><feFlood flood-opacity="0.161"/><feComposite operator="in" in2="b"/><feComposite in="SourceGraphic"/></filter></defs><g transform="translate(-1423.291 -212.996)"><g class="b" transform="matrix(1, 0, 0, 1, 1423.29, 213)"><path class="a" d="M28.665,4.147a8.479,8.479,0,0,0-11.57.843L15.873,6.249,14.652,4.99a8.479,8.479,0,0,0-11.57-.843,8.9,8.9,0,0,0-.614,12.891l12,12.389a1.944,1.944,0,0,0,2.809,0l12-12.389a8.9,8.9,0,0,0-.608-12.891Z" transform="translate(10.5 5.26)"/></g></g></svg>